PathFileType	4	(X/Y/Z)	c:/Users/goper/Files/vsCode/490R/osim_files/C08/C08_Fast_04.trc
DataRate	CameraRate	NumFrames	NumMarkers	Units                	OrigDataRate	OrigDataStartFrame	OrigNumFrames
250.00	250.00	10	36	mm	250.0	591	2362
                Frame#	Time	LPSIS			LASIS			LTH1			LTH2			LTH3			LTH4			LLFE			LMFE			LSH1			LSH2			LSH3			LSH4			LLMAL			LMMAL			LCAL			LMTP5			LTOE			LMTP1			RPSIS			RASIS			RTH1			RTH2			RTH3			RTH4			RLFE			RMFE			RSH1			RSH2			RSH3			RSH4			RLMAL			RMMAL			RCAL			RMTP1			RTOE			RMTP5		
		X1	Y1	Z1	X2	Y2	Z2	X3	Y3	Z3	X4	Y4	Z4	X5	Y5	Z5	X6	Y6	Z6	X7	Y7	Z7	X8	Y8	Z8	X9	Y9	Z9	X10	Y10	Z10	X11	Y11	Z11	X12	Y12	Z12	X13	Y13	Z13	X14	Y14	Z14	X15	Y15	Z15	X16	Y16	Z16	X17	Y17	Z17	X18	Y18	Z18	X19	Y19	Z19	X20	Y20	Z20	X21	Y21	Z21	X22	Y22	Z22	X23	Y23	Z23	X24	Y24	Z24	X25	Y25	Z25	X26	Y26	Z26	X27	Y27	Z27	X28	Y28	Z28	X29	Y29	Z29	X30	Y30	Z30	X31	Y31	Z31	X32	Y32	Z32	X33	Y33	Z33	X34	Y34	Z34	X35	Y35	Z35	X36	Y36	Z36

591	2.36000	2207.14819	1032.65308	173.20650	2000.36523	1002.33417	36.03300	2152.23901	715.93054	333.22690	2164.58228	638.90869	314.80457	2178.33936	567.20386	308.35596	0.00000	0.00000	0.00000	2193.63989	522.24542	301.61450	0.00000	0.00000	0.00000	0.00000	0.00000	0.00000	0.00000	0.00000	0.00000	0.00000	0.00000	0.00000	-1502.64392	741.00513	2791.89087	0.00000	0.00000	0.00000	1899.54578	699.36865	15.45891	0.00000	0.00000	0.00000	1940.66614	400.63358	-22.69751	0.00000	0.00000	0.00000	0.00000	0.00000	0.00000	2204.19067	1030.34668	113.09208	2010.89746	986.62238	271.69165	0.00000	0.00000	0.00000	0.00000	0.00000	0.00000	0.00000	0.00000	0.00000	1975.17151	522.23059	4.44656	0.00000	0.00000	0.00000	0.00000	0.00000	0.00000	2028.22803	184.68216	294.02338	0.00000	0.00000	0.00000	0.00000	0.00000	0.00000	0.00000	0.00000	0.00000	0.00000	0.00000	0.00000	1876.00830	108.82210	115.36931	1959.96729	79.52999	98.05944	1743.02454	62.85738	103.80078	1730.21741	86.45751	50.75428	1776.70300	57.17829	-7.15026
592	2.36400	2201.16357	1032.84204	172.80623	1994.04565	1002.94653	34.51128	2143.86597	715.05396	332.71228	2155.27686	637.75403	314.80017	2168.28394	565.93878	308.71982	0.00000	0.00000	0.00000	2182.89746	520.74097	302.17221	2247.50757	409.60599	309.04401	0.00000	0.00000	0.00000	-1502.60913	740.95245	2791.92920	0.00000	0.00000	0.00000	0.00000	0.00000	0.00000	0.00000	0.00000	0.00000	0.00000	0.00000	0.00000	0.00000	0.00000	0.00000	1936.13391	401.25485	-23.31148	0.00000	0.00000	0.00000	0.00000	0.00000	0.00000	2198.18555	1030.84656	112.62527	2005.16260	986.94580	271.02057	0.00000	0.00000	0.00000	0.00000	0.00000	0.00000	0.00000	0.00000	0.00000	1970.27625	522.43250	3.97348	0.00000	0.00000	0.00000	0.00000	0.00000	0.00000	0.00000	0.00000	0.00000	2080.96167	172.60132	292.64789	0.00000	0.00000	0.00000	0.00000	0.00000	0.00000	0.00000	0.00000	0.00000	1875.35754	108.80858	115.43738	1959.63025	79.77206	97.98016	1743.88074	62.61521	104.39140	1728.77686	85.03149	50.69878	1776.19177	56.81215	-6.87046
593	2.36800	2195.18677	1033.01648	172.41920	1987.97339	1003.78668	34.27124	2135.46680	714.21985	332.29254	2145.87573	636.59149	314.88660	2158.03931	564.65973	309.18613	0.00000	0.00000	0.00000	2172.10791	519.29773	302.81055	2237.37573	409.55536	309.48383	0.00000	0.00000	0.00000	0.00000	0.00000	0.00000	0.00000	0.00000	0.00000	1965.53833	522.65125	3.54042	0.00000	0.00000	0.00000	0.00000	0.00000	0.00000	0.00000	0.00000	0.00000	1932.08142	402.06253	-23.82178	0.00000	0.00000	0.00000	0.00000	0.00000	0.00000	2192.23218	1031.35876	112.19073	1999.54260	987.32330	270.27036	0.00000	0.00000	0.00000	2073.53687	176.93451	292.71860	0.00000	0.00000	0.00000	0.00000	0.00000	0.00000	0.00000	0.00000	0.00000	0.00000	0.00000	0.00000	1721.50525	86.12845	50.73074	0.00000	0.00000	0.00000	0.00000	0.00000	0.00000	0.00000	0.00000	0.00000	0.00000	0.00000	0.00000	1875.22803	108.77844	116.17757	1959.36475	80.06479	97.91846	1742.90161	61.18786	104.17195	0.00000	0.00000	0.00000	1775.83228	56.53948	-6.65598
594	2.37200	2189.26685	1033.17676	172.08223	1982.18225	1004.81177	35.21122	2126.94800	713.34991	331.92392	2136.38135	635.40894	314.97971	2147.63770	563.35016	309.68115	0.00000	0.00000	0.00000	2161.16333	517.80652	303.49234	2227.13794	409.54611	309.92310	0.00000	0.00000	0.00000	1928.16064	402.74652	-24.23869	0.00000	0.00000	0.00000	0.00000	0.00000	0.00000	0.00000	0.00000	0.00000	0.00000	0.00000	0.00000	2066.13623	181.39334	292.74719	0.00000	0.00000	0.00000	1781.25989	581.17444	182.77322	0.00000	0.00000	0.00000	2186.31274	1031.84058	111.82035	1993.98657	987.65948	269.58167	0.00000	0.00000	0.00000	0.00000	0.00000	0.00000	0.00000	0.00000	0.00000	0.00000	0.00000	0.00000	2016.45654	510.60739	-3.81011	0.00000	0.00000	0.00000	0.00000	0.00000	0.00000	0.00000	0.00000	0.00000	0.00000	0.00000	0.00000	0.00000	0.00000	0.00000	0.00000	0.00000	0.00000	1874.29492	108.75850	115.58921	1959.10632	80.33645	97.84036	1742.70947	59.92357	104.97113	1726.43103	82.84934	51.08167	1775.45630	56.16327	-6.52477
595	2.37600	2183.32251	1033.32910	171.80219	1976.22949	1005.74707	34.88933	2118.44800	712.51703	331.69281	2126.83643	634.24811	315.14560	2137.21191	562.09863	310.14993	0.00000	0.00000	0.00000	2150.31079	516.42432	304.20032	2216.75732	409.59802	310.37128	0.00000	0.00000	0.00000	0.00000	0.00000	0.00000	0.00000	0.00000	0.00000	-1502.56555	740.95703	2791.91260	0.00000	0.00000	0.00000	2441.72559	194.66400	165.40843	0.00000	0.00000	0.00000	0.00000	0.00000	0.00000	1772.01172	579.57990	184.18607	0.00000	0.00000	0.00000	2180.41724	1032.30676	111.51344	1988.51416	988.04926	268.91046	0.00000	0.00000	0.00000	1898.35193	404.89050	-17.45215	0.00000	0.00000	0.00000	0.00000	0.00000	0.00000	2011.83679	510.70578	-4.41232	0.00000	0.00000	0.00000	0.00000	0.00000	0.00000	0.00000	0.00000	0.00000	0.00000	0.00000	0.00000	2058.91504	186.01143	292.70471	0.00000	0.00000	0.00000	1875.01099	109.86160	116.56833	1958.83557	80.57935	97.76801	1742.80896	59.39423	105.13263	1725.12378	81.36208	50.42501	1775.06580	55.69149	-6.54109
596	2.38000	2177.44019	1033.46875	171.53806	1970.13818	1006.55408	33.33318	2109.86670	711.63721	331.50323	2117.31421	633.14618	315.33551	2126.77612	560.92413	310.68881	0.00000	0.00000	0.00000	2139.39795	515.05194	304.87854	2206.34229	409.73071	310.83273	0.00000	0.00000	0.00000	-1502.46802	740.99432	2791.95312	0.00000	0.00000	0.00000	0.00000	0.00000	0.00000	0.00000	0.00000	0.00000	0.00000	0.00000	0.00000	2051.49561	190.63924	292.72879	0.00000	0.00000	0.00000	1763.08838	577.84924	185.55217	0.00000	0.00000	0.00000	2174.57007	1032.70679	111.22672	1983.15186	988.43085	268.27661	0.00000	0.00000	0.00000	1917.19519	400.32370	-25.74602	0.00000	0.00000	0.00000	0.00000	0.00000	0.00000	2007.40735	510.66669	-4.99256	0.00000	0.00000	0.00000	0.00000	0.00000	0.00000	1839.00598	43.81753	16.70487	0.00000	0.00000	0.00000	0.00000	0.00000	0.00000	0.00000	0.00000	0.00000	1874.28345	109.23641	116.72874	1958.53149	80.75021	97.69843	1741.79871	58.12449	104.56103	1724.57153	80.24788	50.39975	1774.71033	55.22658	-6.64109
597	2.38400	2171.58374	1033.59729	171.27556	1964.28833	1007.51794	33.00216	2101.31421	710.86011	331.39468	2107.77319	632.14038	315.56058	2116.39673	559.85938	311.33435	0.00000	0.00000	0.00000	2128.52637	513.77344	305.53683	0.00000	0.00000	0.00000	2195.84814	409.94196	311.27994	0.00000	0.00000	0.00000	0.00000	0.00000	0.00000	0.00000	0.00000	0.00000	2044.03955	195.30167	292.69968	0.00000	0.00000	0.00000	0.00000	0.00000	0.00000	0.00000	0.00000	0.00000	1754.51990	576.13873	186.86426	0.00000	0.00000	0.00000	2168.73120	1033.09314	110.96500	1977.72241	988.78076	267.56879	0.00000	0.00000	0.00000	1913.47620	400.31763	-26.18831	0.00000	0.00000	0.00000	0.00000	0.00000	0.00000	2003.37219	510.69687	-5.53089	0.00000	0.00000	0.00000	0.00000	0.00000	0.00000	0.00000	0.00000	0.00000	0.00000	0.00000	0.00000	1837.75220	43.11136	16.70146	0.00000	0.00000	0.00000	1873.71130	109.18970	116.72995	1958.28650	80.93134	97.63622	1742.11450	57.77744	105.07018	1723.79980	79.51942	50.82301	1774.48486	54.88900	-6.80258
598	2.38800	2165.77173	1033.71777	171.03064	1958.68506	1008.67218	33.81676	2092.77783	710.14514	331.34552	2098.24414	631.19922	315.79388	2106.03931	558.85718	311.94434	0.00000	0.00000	0.00000	2117.75635	512.62640	306.19101	0.00000	0.00000	0.00000	0.00000	0.00000	0.00000	2185.27637	410.22958	311.76822	0.00000	0.00000	0.00000	2218.19653	376.28314	304.96054	0.00000	0.00000	0.00000	0.00000	0.00000	0.00000	-1502.51746	740.92926	2791.91309	0.00000	0.00000	0.00000	1746.33948	574.41553	188.10495	0.00000	0.00000	0.00000	2162.91772	1033.44653	110.72671	1971.27991	988.80676	265.86584	0.00000	0.00000	0.00000	1906.93994	397.50882	-26.39922	0.00000	0.00000	0.00000	0.00000	0.00000	0.00000	1999.63135	510.57532	-6.00866	0.00000	0.00000	0.00000	0.00000	0.00000	0.00000	2140.77271	275.79770	171.96086	0.00000	0.00000	0.00000	0.00000	0.00000	0.00000	0.00000	0.00000	0.00000	1873.14160	109.11826	116.72176	1958.07361	81.07470	97.59150	1741.22668	56.88208	104.45192	1725.68701	78.84142	51.75295	1774.33240	54.65777	-6.95118
599	2.39200	2160.01001	1033.85022	170.74896	1952.83118	1009.53607	32.08367	2084.27881	709.51385	331.32776	2088.83813	630.40802	316.06271	2095.76562	558.00055	312.48160	0.00000	0.00000	0.00000	2107.03760	511.55783	306.77811	2176.06177	410.59586	313.82898	0.00000	0.00000	0.00000	0.00000	0.00000	0.00000	0.00000	0.00000	0.00000	2207.83228	377.14072	305.18549	0.00000	0.00000	0.00000	0.00000	0.00000	0.00000	-1502.39856	740.95697	2792.01172	0.00000	0.00000	0.00000	1738.63062	572.68994	189.20613	0.00000	0.00000	0.00000	2157.09985	1033.77588	110.50980	1966.09363	989.13361	265.34879	0.00000	0.00000	0.00000	1903.62048	397.22690	-26.81376	0.00000	0.00000	0.00000	0.00000	0.00000	0.00000	1995.99963	510.27475	-6.61464	0.00000	0.00000	0.00000	0.00000	0.00000	0.00000	0.00000	0.00000	0.00000	0.00000	0.00000	0.00000	2130.66650	278.83621	172.38078	0.00000	0.00000	0.00000	1872.73120	109.49308	116.57304	1957.90186	81.19511	97.56737	1740.64905	55.77279	104.49745	1716.68652	81.35150	53.24764	1774.20093	54.43352	-7.07103
600	2.39600	2154.24658	1033.94043	170.42578	1947.19788	1010.56287	33.02004	2075.83545	709.00696	331.34930	2079.55273	629.78882	316.40192	2085.65210	557.36047	313.08984	0.00000	0.00000	0.00000	2096.45703	510.70529	307.38412	0.00000	0.00000	0.00000	0.00000	0.00000	0.00000	2197.38745	378.03369	305.36853	0.00000	0.00000	0.00000	0.00000	0.00000	0.00000	0.00000	0.00000	0.00000	0.00000	0.00000	0.00000	-1502.39209	740.90582	2792.03760	0.00000	0.00000	0.00000	1731.25696	571.05115	190.31992	0.00000	0.00000	0.00000	2151.32178	1034.14880	110.21247	1961.95789	989.72034	265.78500	0.00000	0.00000	0.00000	0.00000	0.00000	0.00000	0.00000	0.00000	0.00000	1866.02393	405.71121	-13.76407	1992.49219	509.83929	-7.17404	0.00000	0.00000	0.00000	0.00000	0.00000	0.00000	1907.65955	403.27530	-26.58799	0.00000	0.00000	0.00000	0.00000	0.00000	0.00000	0.00000	0.00000	0.00000	1872.33411	109.40615	116.64243	1957.80383	81.32188	97.55810	1740.11218	55.15614	104.83174	1725.12903	76.92770	51.95189	1774.02087	54.19751	-7.15966
